<svg version="1" xmlns="http://www.w3.org/2000/svg" width="1956" height="1956" viewBox="0 0 1467.000000 1467.000000"><path d="M725.2 142.6c-1 2-1.7 6.8-2.7 19.4-.3 4.1-.8 9.1-1 11-.2 1.9-.7 7.5-1 12.5-.4 4.9-.8 10.6-1 12.5-.3 3-.7 8-2 23.5-.2 1.6-.6 6.9-.9 11.7-.4 4.8-.9 9.5-1 10.5-.2 1-.7 6.3-1.1 11.7-.4 5.5-.8 10.7-1 11.5-.1.9-.6 5-1 9.1-.3 4.1-.8 9.1-1 11-.2 1.9-.7 6.9-1 11-.4 4.1-.8 7.6-.9 7.7-.1.1-9.2-5.8-20.1-13.2-19.2-12.9-24.5-15.5-24.5-11.9 0 1.8 3.9 8.7 5.2 9.2.4.2.8.7.8 1.1 0 .4 4.7 7.8 10.5 16.4 5.7 8.6 10.1 15.8 9.7 16-.4.3-4.3.8-8.7 1.2-4.4.4-9.1.8-10.5 1-1.4.1-6.8.6-12 1s-10.6.9-12 1c-1.4.2-6.3.6-11 1s-10.3.8-12.5 1c-2.2.2-7.1.6-11 1-3.8.3-8.8.7-11 1-2.2.2-8 .7-13 1.1-4.9.3-9.7.8-10.5.9-.9.2-6 .6-11.5 1s-11.1.8-12.3 1c-1.3.2-6.3.7-11 1.1-13.2 1-15.8 1.6-16.5 4.3-1 3.9 2.3 5.7 11.8 6.5 3.9.4 8.8.9 11 1.1 2.2.2 7.6.7 12 1.1 4.4.3 9.4.8 11 .9 1.7.2 6.7.6 11.2 1 4.6.3 9.6.8 11.2 1 1.6.2 7.3.6 12.7 1 5.5.4 10.7.9 11.8 1.1 1 .2 5.7.6 10.5.9 4.7.3 9.7.7 11.1 1 1.4.2 6.6.7 11.5 1 5 .4 10.6.8 12.5 1 5.7.6 17.2 1.7 21.3 2 2.1.2 4 .5 4.3.7.2.3-2.8 5.1-6.6 10.7-3.9 5.7-7 10.6-7 10.8 0 .3-1.3 2.2-2.8 4.2-1.6 2-4.6 6.4-6.7 9.8-3.6 6-4.1 9.3-1.2 9.3 1.3 0 10.7-6 31.5-20.3 5.6-3.9 10.4-6.8 10.6-6.6.4.4 1.1 6.9 2.1 17.9 1 11.7 1.7 18.6 2.5 27 .9 8.7 1.3 14 2.5 27.5.5 5.9 1.4 17 2 24 .8 10.1 1.6 19.1 2 23 .4 3.7.8 8.3 2.1 24.5 1.2 15.9 2 20 3.9 20 1.6 0 2.5-2.4 3-7.8.8-8.5 1.7-20 3-35.2.3-4.1.8-9.5 1-12 .3-2.5.7-7.9 1-12 .3-4.1.8-9.5 1-12 .3-2.5.7-7.4 1-11 .7-8.6 2.2-25.1 3-33.5.2-2.2.7-7.2 1-11 .3-3.9.8-8.4 1-10 .2-1.7.7-6.6 1.1-11 .3-4.4.8-8.2 1-8.4.1-.2 9.5 5.9 20.8 13.4 20.8 14 24.6 15.6 23.2 10-.3-1.3-6.4-11.1-13.5-21.7s-12.8-19.4-12.7-19.6c.3-.3 3.1-.6 14.6-1.7 3.6-.3 8.3-.8 10.5-1 2.2-.2 8.1-.7 13-1 5-.3 10.1-.8 11.5-1 1.4-.2 6.1-.7 10.5-1 4.4-.3 10-.8 12.5-1 2.5-.2 7.4-.7 11-1 3.6-.3 8.8-.8 11.5-1 12.7-1.2 15.5-1.4 23.5-2 4.7-.3 9.6-.8 11-1 1.4-.2 6.6-.6 11.5-1 17.1-1.2 21.2-2.1 22.6-4.7.8-1.5.7-2.4-.6-3.8-2.1-2.3-4.4-2.7-28.5-4.5-3.6-.3-8.1-.7-10-1-1.9-.2-7.1-.7-11.5-1-4.4-.3-10-.8-12.5-1-14-1.4-25.3-2.3-34.5-3-4.4-.3-9.6-.8-11.5-1-1.9-.2-7.1-.7-11.5-1-4.4-.4-9.6-.8-11.5-1-1.9-.2-9.7-.9-17.3-1.6-11.9-1-13.8-1.4-13.4-2.8.2-.9 6.1-10.1 13.1-20.5 6.9-10.4 12.6-19.7 12.6-20.7 0-.9-.6-1.9-1.4-2.2-.9-.4-10.2 5.3-22.2 13.3-11.5 7.7-20.9 13.8-21 13.7-.1-.1-.5-4.5-.9-9.7-.4-5.2-.8-9.7-1-10-.1-.3-.6-4.4-1-9.2-.3-4.8-.8-9.8-1-11-.2-1.3-.6-6.3-1-11.2-.4-5-.8-9.7-1-10.5-.1-.9-.6-6.2-1-11.9-.3-5.7-.8-11.1-1-12-.1-.9-.6-6.4-1-12.2-.4-5.8-.8-11.2-1-12-.1-.8-.6-5.8-1-11s-.8-10.7-1-12.2c-.2-1.4-.6-6.7-1-11.7-.4-4.9-.8-9.8-1-10.8-.2-1-.4-2.7-.4-3.9-.1-1.1-.7-2.9-1.5-3.9-1.3-1.8-1.4-1.8-2.4.1zM527.2 542.4c-1 1.3-3.3 8.6-5.2 16.3-3.1 13-11.6 42.1-15.8 54.3-6.5 18.6-12 32.8-20.2 52-6.8 15.9-24.2 50.1-30 58.9-3.4 5.1-6 10-5.8 10.9.8 3.9 3.4 3.8 17.5-1 18.9-6.3 29.9-9.7 37.5-11.4 1-.2 2.6-.6 3.6-.8 5.7-1.3 17.3-3.5 20.7-4 2.2-.3 6.5-.8 9.5-1.2 11.1-1.5 36.6-.9 46 1.1 2.3.4 7.7 1.7 9 2 .3.1 1.9.5 3.5 1 8.4 2.2 20 9.1 27.5 16.5 13.8 13.4 18.1 21.9 29.2 58.5 2.2 7.1 4.1 13.7 4.3 14.5.2.8 2.4 9.4 4.9 19 2.5 9.6 4.8 18.8 5 20.5.3 1.6.8 4.1 1.1 5.5.3 1.4 1 4.7 1.5 7.5.5 2.7 1.2 6.1 1.5 7.5 1.1 5 4.4 25.6 5 31 .3 3 .8 6.6 1 8 .5 3.2 1.3 9.9 2 17.5.3 3.3.8 8.7 1.1 12 3.5 34.9 3.4 90.6-.1 139-.4 4.9-.8 11-1 13.5-.1 2.5-.6 7.4-.9 11-.4 3.6-.9 9.2-1.2 12.5-.3 3.3-.7 7.1-.9 8.5-.2 1.4-.7 5.9-1 10-.4 4.1-.8 8.2-1 9-.1.8-.6 4.6-1 8.3-.3 3.7-.8 7.7-1 8.7-.2 1-.7 5-1 8.7-.4 3.7-.9 7.7-1.1 8.8-.2 1.1-.6 5-1 8.7-.9 10.8-.7 11 23.3 23.1 19.1 9.5 30.6 15.5 43.8 22.7 2.8 1.5 8.2 4.4 12 6.5 12.9 7 39.8 22.6 63.1 36.6 12.7 7.7 24.1 13.9 25.2 13.9 3.4 0 4.4-3.2 3.7-12.8-.3-4.8-.8-12-1-15.9-1.1-17.2-1.6-23.1-2-28.8-.3-3.3-.8-9.6-1-14-.3-4.4-.7-9.6-1-11.5-.2-1.9-.7-6-1-9-.3-3-1-8.9-1.5-13s-1.2-10-1.5-13c-.4-3-.8-6.6-1-8-.2-1.4-.7-5-1-8-.4-3-.9-6.2-1-7.1-.2-.9-.6-4-1-6.9-.4-2.9-.8-6-1-6.9-.1-.9-.6-3.9-.9-6.6-.4-2.8-1.1-7.5-1.6-10.5s-1.2-7.8-1.6-10.5c-.3-2.8-.9-6.8-1.4-9-.5-2.2-1.1-6.4-1.5-9.4-.7-5.2-.9-6.8-2-12.1-.2-1.4-.7-3.9-.9-5.5-.5-3.1-4.4-26.4-5-30-.2-1.1-.7-3.8-1.1-6-.4-2.2-.9-4.7-1-5.5-.2-.8-1-5.3-1.9-10-.9-4.7-1.7-9.9-1.9-11.5-.3-1.7-.7-4.1-1-5.5-.3-1.4-1-5.2-1.6-8.5-.6-3.3-2.3-12.3-3.7-20-1.4-7.7-3-16.3-3.4-19-.5-2.8-1.8-10-2.9-16-1.1-6.1-2.2-12.4-2.5-14-.3-1.7-1.4-8.4-2.5-15s-2.3-14-2.6-16.5c-.3-2.5-.8-5.6-1-7-.5-3.3-1.6-11.8-2-15.5-.1-1.7-.6-7.1-1.1-12-1.5-17.2-.8-61.4 1.1-64.5.2-.4.7-2.2 1-4.1.7-4.2 1.4-6.8 2.4-9.4.5-1.1 1.7-4 2.7-6.5 4.3-10.7 16-25 25.8-31.6 6.9-4.7 18.1-9.3 27.7-11.3 7.9-1.7 12.1-1.9 26.4-1.6 17 .5 20.2.7 30.5 2.6 3 .6 6.9 1.3 8.5 1.5 14.7 2.5 61.1 17.6 78 25.5 6.4 2.9 15.7 5.8 17.1 5.2 2.3-.9 1.3-5.5-2.8-12.8-6.3-11.2-16.2-34.6-21.7-51.5-3.2-9.8-9.5-35.4-10.5-42.5-.3-2.2-.7-4.9-.9-6-.4-2-1.2-7.7-2.1-15-1-8-1.8-20.3-2.1-32.2-.6-22.3-1.9-23.4-25-19.9-3 .5-11 1.4-17.5 2-18.1 1.8-18.9 1.9-33 3.1-4.1.3-9.5.8-12 1-27.6 2.4-104.4 2.5-128 .1-1.9-.2-7.5-.7-12.5-1.1-4.9-.3-10.3-.8-11.9-1-1.6-.2-5.9-.6-9.5-.9-3.6-.4-7.7-.8-9.1-1.1-1.4-.2-4.7-.7-7.5-1-7.9-.9-11.2-1.5-23-3.5-6-1-12.6-2.2-14.5-2.5-1.9-.3-6.3-1.2-9.6-2-6.7-1.5-9.2-2.1-13.9-3-1.6-.3-9.1-2.2-16.5-4.1-7.4-2-14.2-3.7-15-3.9-8.1-1.9-39.1-12.4-56.4-19.1-17.5-6.8-18.9-7.1-21.4-4z"/></svg>